#!OML:ASF E:\VariousWalksJay\Project 1\Capture day 1\Session 1\Actor2.ASF
:FULLY-SPECIFIED
:DEGREES
1107
root 6.14924 16.9671 -26.0156 190.309 -6.58465 -185.856
lowerback 14.4049 -0.707009 8.05349
upperback 18.3112 -5.27195 1.39708
thorax 12.0398 -3.4739 -3.06757
lowerneck 4.05918 -3.02384 -2.60754
upperneck -2.99433 -3.94928 7.21519
head -1.44638 -2.10177 2.86303
rclavicle -1.51076e-014 4.69132e-014
rhumerus -5.53223 21.0932 -69.8834
rradius 68.2488
rwrist 1.31145
rhand -9.63609 -8.87269
rfingers 7.12502
rthumb 16.3341 -38.2048
lclavicle -1.51076e-014 4.69132e-014
lhumerus 3.19707 -22.1567 68.7465
lradius 50.2748
lwrist 8.51812
lhand -6.51226 -14.005
lfingers 7.12502
lthumb 19.3399 15.0533
rfemur -45.4613 -2.42265 15.1248
rtibia 53.518
rfoot -15.0561 -8.3483
rtoes -1.36623
lfemur -35.6968 19.2912 -25.2787
ltibia 58.1947
lfoot -22.7893 8.59746
ltoes -19.2567
1108
root 6.1622 16.9877 -26.0606 190.423 -6.57204 -185.835
lowerback 14.328 -0.669401 8.06947
upperback 18.24 -5.18481 1.43554
thorax 12.0015 -3.42058 -3.03703
lowerneck 4.06028 -3.05299 -2.64031
upperneck -3.03451 -3.98722 7.19573
head -1.45721 -2.1199 2.8641
rclavicle -2.70347e-014 -5.24792e-014
rhumerus -5.62414 21.3119 -69.9326
rradius 68.1842
rwrist 1.24284
rhand -9.53944 -8.88695
rfingers 7.12502
rthumb 16.4271 -38.2114
lclavicle -2.70347e-014 -5.24792e-014
lhumerus 2.87532 -22.0852 68.754
lradius 50.0588
lwrist 8.4856
lhand -6.24446 -13.9526
lfingers 7.12502
lthumb 19.5973 15.0797
rfemur -45.2912 -2.42991 15.218
rtibia 53.308
rfoot -15.1639 -8.26617
rtoes -1.14967
lfemur -36.2044 19.7065 -25.8798
ltibia 57.2605
lfoot -22.8662 8.71178
ltoes -19.4177
1109
root 6.17428 17.0073 -26.1051 190.512 -6.55362 -185.816
lowerback 14.2588 -0.631658 8.06329
upperback 18.1668 -5.09716 1.46837
thorax 11.9558 -3.36974 -2.99977
lowerneck 4.08325 -3.08116 -2.66906
upperneck -3.10474 -4.0224 7.17512
head -1.48189 -2.1375 2.86533
rclavicle -1.98785e-014 1.59028e-015
rhumerus -5.74248 21.5318 -69.9919
rradius 68.1489
rwrist 1.12677
rhand -9.46793 -8.90875
rfingers 7.12502
rthumb 16.496 -38.2275
lclavicle -1.98785e-014 1.59028e-015
lhumerus 2.53672 -22.0146 68.7597
lradius 49.8725
lwrist 8.45617
lhand -5.96947 -13.9027
lfingers 7.12502
lthumb 19.8617 15.1024
rfemur -45.1009 -2.44526 15.309
rtibia 53.1059
rfoot -15.2729 -8.17776
rtoes -0.944199
lfemur -36.6427 20.0927 -26.4535
ltibia 56.2861
lfoot -22.9512 8.88451
ltoes -19.563
1110
root 6.18608 17.0255 -26.1494 190.573 -6.51585 -185.782
lowerback 14.196 -0.586996 8.04211
upperback 18.0959 -5.00259 1.49809
thorax 11.9102 -3.31797 -2.95791
lowerneck 4.10446 -3.10723 -2.68249
upperneck -3.18868 -4.05367 7.14629
head -1.51131 -2.15339 2.86121
rclavicle -6.91771e-014 -7.95139e-016
rhumerus -5.87627 21.7473 -70.063
rradius 68.1376
rwrist 0.982985
rhand -9.39935 -8.94304
rfingers 7.12502
rthumb 16.562 -38.2563
lclavicle -6.91771e-014 -7.95139e-016
lhumerus 2.18726 -21.9432 68.7581
lradius 49.7195
lwrist 8.4343
lhand -5.69796 -13.8525
lfingers 7.12502
lthumb 20.1227 15.1254
rfemur -44.8924 -2.44032 15.415
rtibia 52.913
rfoot -15.3815 -8.09504
rtoes -0.759165
lfemur -37.0092 20.4632 -26.9707
ltibia 55.2765
lfoot -23.0593 9.09651
ltoes -19.6003
1111
root 6.19737 17.0424 -26.1935 190.607 -6.45958 -185.735
lowerback 14.1391 -0.536955 8.00742
upperback 18.0253 -4.90154 1.52304
thorax 11.8619 -3.26485 -2.91385
lowerneck 4.13231 -3.12977 -2.69433
upperneck -3.28075 -4.07994 7.12364
head -1.54479 -2.16725 2.85923
rclavicle -1.82882e-014 -1.19271e-014
rhumerus -6.0283 21.9597 -70.146
rradius 68.1427
rwrist 0.826422
rhand -9.34775 -8.97853
rfingers 7.12502
rthumb 16.6117 -38.2876
lclavicle -1.82882e-014 -1.19271e-014
lhumerus 1.82279 -21.8767 68.7532
lradius 49.6
lwrist 8.42312
lhand -5.43772 -13.7981
lfingers 7.12502
lthumb 20.3728 15.1532
rfemur -44.6675 -2.42307 15.5319
rtibia 52.7327
rfoot -15.4905 -8.01316
rtoes -0.607119
lfemur -37.2974 20.8072 -27.4288
ltibia 54.2331
lfoot -23.1821 9.34856
ltoes -19.5512
1112
root 6.20774 17.0578 -26.2372 190.616 -6.39036 -185.685
lowerback 14.0861 -0.485229 7.96075
upperback 17.9587 -4.80057 1.54057
thorax 11.8158 -3.21332 -2.87149
lowerneck 4.20359 -3.14871 -2.67173
upperneck -3.44802 -4.09695 7.07874
head -1.61192 -2.17826 2.84643
rclavicle 6.36111e-015 -2.78299e-014
rhumerus -6.18479 22.1665 -70.238
rradius 68.1589
rwrist 0.674736
rhand -9.30278 -9.01267
rfingers 7.12502
rthumb 16.655 -38.3181
lclavicle 6.36111e-015 -2.78299e-014
lhumerus 1.45269 -21.8098 68.7419
lradius 49.5132
lwrist 8.42489
lhand -5.19681 -13.7358
lfingers 7.12502
lthumb 20.6043 15.1906
rfemur -44.4273 -2.4042 15.6505
rtibia 52.5663
rfoot -15.6022 -7.92396
rtoes -0.466478
lfemur -37.5016 21.1108 -27.8286
ltibia 53.1563
lfoot -23.3327 9.62569
ltoes -19.3387
1113
root 6.21744 17.0714 -26.2804 190.606 -6.30271 -185.625
lowerback 14.0308 -0.42849 7.90372
upperback 17.8971 -4.6963 1.55299
thorax 11.7775 -3.16148 -2.82987
lowerneck 4.28688 -3.16382 -2.62356
upperneck -3.65745 -4.10625 7.01884
head -1.69613 -2.18629 2.82528
rclavicle 5.56597e-015 9.54166e-015
rhumerus -6.33462 22.3666 -70.3359
rradius 68.1782
rwrist 0.53676
rhand -9.26847 -9.04019
rfingers 7.12502
rthumb 16.688 -38.3429
lclavicle 5.56597e-015 9.54166e-015
lhumerus 1.08561 -21.7413 68.7229
lradius 49.4534
lwrist 8.43987
lhand -4.9962 -13.6784
lfingers 7.12502
lthumb 20.7971 15.2271
rfemur -44.1835 -2.37341 15.7781
rtibia 52.4154
rfoot -15.7129 -7.83734
rtoes -0.36845
lfemur -37.629 21.3689 -28.1573
ltibia 52.0464
lfoot -23.503 9.91261
ltoes -18.9918
1114
root 6.22601 17.0835 -26.3234 190.575 -6.20289 -185.546
lowerback 13.9706 -0.371819 7.85498
upperback 17.8423 -4.59557 1.56006
thorax 11.7498 -3.1105 -2.79945
lowerneck 4.39437 -3.17317 -2.55115
upperneck -3.9192 -4.10512 6.94539
head -1.80317 -2.19041 2.79718
rclavicle -1.19271e-014 2.3059e-014
rhumerus -6.47351 22.5628 -70.4394
rradius 68.1971
rwrist 0.42298
rhand -9.24186 -9.05962
rfingers 7.12502
rthumb 16.7136 -38.3601
lclavicle -1.19271e-014 2.3059e-014
lhumerus 0.722771 -21.6662 68.6956
lradius 49.4191
lwrist 8.46573
lhand -4.82477 -13.6173
lfingers 7.12502
lthumb 20.9618 15.27
rfemur -43.9296 -2.33856 15.9235
rtibia 52.2781
rfoot -15.8248 -7.7473
rtoes -0.301301
lfemur -37.6696 21.5705 -28.3972
ltibia 50.9017
lfoot -23.682 10.1982
ltoes -18.5263
1115
root 6.23365 17.0941 -26.366 190.525 -6.08647 -185.448
lowerback 13.9001 -0.311553 7.81268
upperback 17.7926 -4.49338 1.56532
thorax 11.7346 -3.05809 -2.77579
lowerneck 4.52466 -3.17796 -2.47733
upperneck -4.21931 -4.09673 6.8737
head -1.92765 -2.192 2.7712
rclavicle -1.74931e-014 -1.59028e-015
rhumerus -6.60507 22.7533 -70.5435
rradius 68.2144
rwrist 0.334688
rhand -9.22024 -9.07349
rfingers 7.12502
rthumb 16.7344 -38.3722
lclavicle -1.74931e-014 -1.59028e-015
lhumerus 0.368008 -21.596 68.6632
lradius 49.4021
lwrist 8.50437
lhand -4.68847 -13.5554
lfingers 7.12502
lthumb 21.0927 15.3173
rfemur -43.6698 -2.29009 16.087
rtibia 52.1536
rfoot -15.9371 -7.65825
rtoes -0.249648
lfemur -37.6254 21.7079 -28.5401
ltibia 49.7242
lfoot -23.83 10.4807
ltoes -18.0166
1116
root 6.24009 17.1032 -26.408 190.459 -5.96268 -185.321
lowerback 13.8202 -0.255524 7.789
upperback 17.7467 -4.39964 1.57158
thorax 11.729 -3.0081 -2.76178
lowerneck 4.65435 -3.17629 -2.40203
upperneck -4.526 -4.0803 6.79276
head -2.05526 -2.18953 2.74206
rclavicle 1.59028e-015 1.98785e-014
rhumerus -6.72011 22.9538 -70.6431
rradius 68.2261
rwrist 0.273452
rhand -9.20628 -9.07858
rfingers 7.12502
rthumb 16.7479 -38.3762
lclavicle 1.59028e-015 1.98785e-014
lhumerus 0.0346889 -21.5326 68.6067
lradius 49.3961
lwrist 8.57706
lhand -4.60004 -13.4967
lfingers 7.12502
lthumb 21.1777 15.3666
rfemur -43.4052 -2.23898 16.2796
rtibia 52.0388
rfoot -16.0461 -7.56803
rtoes -0.222841
lfemur -37.5023 21.7593 -28.5678
ltibia 48.5301
lfoot -23.8721 10.7446
ltoes -17.5779
1117
root 6.24546 17.1108 -26.4493 190.377 -5.8293 -185.177
lowerback 13.7319 -0.201633 7.77459
upperback 17.7027 -4.31028 1.57591
thorax 11.7302 -2.9591 -2.75541
lowerneck 4.77386 -3.16883 -2.342
upperneck -4.80743 -4.05845 6.72194
head -2.17308 -2.18393 2.71818
rclavicle -1.74931e-014 -2.46493e-014
rhumerus -6.82818 23.1595 -70.7419
rradius 68.2354
rwrist 0.231023
rhand -9.20021 -9.07752
rfingers 7.12502
rthumb 16.7537 -38.3746
lclavicle -1.74931e-014 -2.46493e-014
lhumerus -0.285074 -21.4758 68.5378
lradius 49.398
lwrist 8.67049
lhand -4.54104 -13.4391
lfingers 7.12502
lthumb 21.2343 15.4178
rfemur -43.136 -2.18337 16.4885
rtibia 51.9357
rfoot -16.1533 -7.47778
rtoes -0.221787
lfemur -37.3 21.7227 -28.4858
ltibia 47.3503
lfoot -23.6718 10.9379
ltoes -17.1382
